<svg width="80" height="80" viewBox="-40 0 512 512" xmlns="http://www.w3.org/2000/svg"><path d="M119.762 255.176a7.5 7.5 0 0 0-7.5 7.5v17.375a7.5 7.5 0 1 0 15 0v-17.375c0-4.14-3.36-7.5-7.5-7.5zm192 0a7.5 7.5 0 0 0-7.5 7.5v17.375a7.5 7.5 0 1 0 15 0v-17.375c0-4.14-3.36-7.5-7.5-7.5zm-67.372 18.019a7.497 7.497 0 0 0-10.581.711c-4.403 5.031-10.98 7.918-18.047 7.918-7.07 0-13.649-2.886-18.047-7.918a7.501 7.501 0 0 0-11.297 9.871c7.25 8.293 17.941 13.047 29.344 13.047 11.398 0 22.09-4.754 29.34-13.047a7.5 7.5 0 0 0-.711-10.582zm0 0"/><path d="M390.059 0h-281.93a7.5 7.5 0 1 0 0 15h35.508l12.742 20.07c4.547 7.157 12.32 11.43 20.797 11.43h77.168c8.476 0 16.25-4.273 20.797-11.43L287.883 15h102.176c14.59 0 26.46 11.871 26.46 26.46v124.212H15V41.46C15 26.87 26.871 15 41.46 15h36.67c4.14 0 7.5-3.36 7.5-7.5S82.27 0 78.13 0H41.46C18.598 0 0 18.598 0 41.46v429.08C0 493.401 18.598 512 41.46 512h260.157c4.14 0 7.5-3.36 7.5-7.5s-3.36-7.5-7.5-7.5H41.461C26.87 497 15 485.129 15 470.54V346.327h128.637l12.742 20.07c4.547 7.16 12.32 11.43 20.797 11.43h77.168c8.476 0 16.25-4.27 20.797-11.43l12.742-20.07H416.52V470.54c0 14.59-11.872 26.461-26.461 26.461h-58.442a7.5 7.5 0 1 0 0 15h58.442c22.863 0 41.46-18.598 41.46-41.46V41.46C431.52 18.599 412.923 0 390.06 0zM262.477 27.027a9.585 9.585 0 0 1-8.133 4.473H177.18a9.591 9.591 0 0 1-8.137-4.473L161.406 15h108.707zm7.632 153.645l-7.632 12.023a9.595 9.595 0 0 1-8.133 4.47h-77.168a9.59 9.59 0 0 1-8.133-4.47l-7.637-12.023zm-7.632 177.687a9.59 9.59 0 0 1-8.133 4.47H177.18a9.588 9.588 0 0 1-8.137-4.47l-7.637-12.03h108.707zm21.285-27.03H15V180.671h128.64l12.739 20.062c4.547 7.157 12.32 11.43 20.797 11.43h77.168c8.476 0 16.25-4.273 20.797-11.43l12.738-20.062h128.64v150.656zm0 0"/></svg>