<svg width="110" height="110" viewBox="0 0 110 110" xmlns="http://www.w3.org/2000/svg" xmlns:xlink="http://www.w3.org/1999/xlink"><title>Group 15</title><defs><rect id="a" width="18" height="15.322" rx="2"/><rect id="b" x="3" y="1" width="3.273" height="3.699" rx="1"/><rect id="c" width="15.337" height="13.056" rx="2"/><rect id="d" x="11" y="5" width="2.789" height="3.151" rx="1"/></defs><g fill="none" fill-rule="evenodd"><g stroke="#000"><path d="M57.226 44.62c.968.552 2.779.84 5.433.863a38.425 38.425 0 0 0 7.892-.746c4.93-1.676 7.575-2.203 7.935-1.58.54.933-1.297 3.08-2.767 3.734-.848.377-2.127.541-3.838.493a3 3 0 0 0-1.535.372c-2.199 1.213-4.84 1.962-7.924 2.246-1.341.124-2.785.122-4.332-.007m-16.126-7.701c.16-3.99-.454-6.283-1.843-6.881-2.083-.897-4.055-3.292-2.864-6.664 1.192-3.372 5.088-4.24 7.802-3.507 1.686.456 2.907 1.742 4.074 3.507 2.295 3.475 3.302 6.725 1.94 7.43-1.362.705-2.322.679-3.368 1.022-.45.147-.227 1.749.666 4.806l-6.407.287zM52 95.677h7.323a1.45 1.45 0 0 0 1.446-1.559l-.02-.27a2 2 0 0 0-1.31-1.73l-2.933-1.067a2 2 0 0 1-1.206-1.227l-.175-.506a1.956 1.956 0 0 0-1.971-1.314l-1.28.08A2 2 0 0 0 50 90.08v3.597a2 2 0 0 0 2 2zm15.919-2.991l7.073-1.896a1.45 1.45 0 0 0 .994-1.88l-.09-.255a2 2 0 0 0-1.713-1.332l-3.109-.272a2 2 0 0 1-1.483-.873l-.3-.443a1.956 1.956 0 0 0-2.244-.76l-1.214.41a2 2 0 0 0-1.295 2.413l.931 3.473a2 2 0 0 0 2.45 1.415z" stroke-width="2" stroke-linecap="round" stroke-linejoin="round"/><path d="M57.12 77.763l-.5 9.989a2 2 0 0 1-1.998 1.9h-4.11a2 2 0 0 1-2-2.069l.323-9.389a6 6 0 0 0-.195-1.736L45.7 65.311c-4.423-9.018-6.578-15.259-6.465-18.723.113-3.464 2.533-5.265 7.26-5.401 1.418.144 2.528.284 3.33.418s3.433.762 7.895 1.882l.815 7.167h-5.15l5.15 10.906 8.132 9.94a6 6 0 0 1 1.14 2.203l2.644 9.582a2 2 0 0 1-1.29 2.427l-4.098 1.38a2 2 0 0 1-2.606-1.543l-1.48-8.252a6 6 0 0 0-1.116-2.554l-4.089-5.42 1.263 7.087a6 6 0 0 1 .086 1.353z" stroke-width="2" fill="#FFF" fill-rule="nonzero" stroke-linecap="round" stroke-linejoin="round"/><path d="M44.786 63.801s6.121-.46 13.26-4.139" stroke-linecap="round" stroke-linejoin="round"/><path d="M39.035 25.917c-2.335 1.258-3.01 4.475-1.606 7.268.27.536.63.842 1.081.918l9.667-7.02c-3.088-2.398-6.135-2.787-9.142-1.166z" fill="#000"/><path d="M47 27.357l4.5-2.857" stroke-linecap="round"/></g><g transform="rotate(-10 194.954 -311.194)"><use fill="#FFF" xlink:href="#a"/><rect stroke="#000" stroke-width="2" x="1" y="1" width="16" height="13.322" rx="2"/></g><g transform="rotate(-10 194.954 -311.194)"><use fill="#FFF" xlink:href="#b"/><rect stroke="#000" x="3.5" y="1.5" width="2.273" height="2.699" rx="1"/></g><path d="M65.37 27.65l2.448 13.88" stroke="#000"/><g transform="rotate(-10 112.459 -312.652)"><use fill="#FFF" xlink:href="#c"/><rect stroke="#000" stroke-width="2" x="1" y="1" width="13.337" height="11.056" rx="2"/></g><g transform="rotate(-10 112.459 -312.652)"><use fill="#FFF" xlink:href="#d"/><rect stroke="#000" x="11.5" y="5.5" width="1.789" height="2.151" rx=".894"/></g><path d="M61.344 13.836l2.085 11.827" stroke="#000"/></g></svg>