<svg id="Layer_1" xmlns="http://www.w3.org/2000/svg" viewBox="0 0 50 50"><style>.st0{fill:#323232}</style><path class="st0" d="M25 33.908c5.745 0 10.386-4.751 10.386-10.533V11C35.386 5.18 30.746.467 25 .467S14.614 5.18 14.614 11v12.338c0 5.856 4.64 10.57 10.386 10.57zM16.824 11c0-4.604 3.683-8.324 8.176-8.324S33.176 6.433 33.176 11v12.338c0 4.603-3.683 8.323-8.176 8.323s-8.176-3.683-8.176-8.286V11z"/><path class="st0" d="M25 12.805c.626 0 1.105-.48 1.105-1.105V8.532c0-.626-.479-1.105-1.105-1.105s-1.105.48-1.105 1.105V11.7c0 .626.479 1.105 1.105 1.105zm-6.625 21.369a.908.908 0 1 0-1.285 1.285l7.268 7.267a.908.908 0 0 0 1.284 0l7.268-7.267a.908.908 0 0 0-1.285-1.285L25 40.799l-6.625-6.625z"/><path class="st0" d="M18.375 40.715A.908.908 0 0 0 17.09 42l7.268 7.267a.908.908 0 0 0 1.284 0L32.91 42a.908.908 0 0 0-1.285-1.285L25 47.34l-6.625-6.625z"/></svg>