<svg width="110" height="110" viewBox="0 0 110 110" xmlns="http://www.w3.org/2000/svg" xmlns:xlink="http://www.w3.org/1999/xlink"><title>Group 25</title><defs><path d="M70.229 16.765h13.21a3 3 0 0 1 2.774 1.859l4.84 11.768a11 11 0 0 1 .827 4.184V47.52a3 3 0 0 1-2.801 2.994c-4.082.272-6.664.198-7.748-.22-1.313-.507-2.249-2.37-2.806-5.588h-8.296a3 3 0 0 1-3-3V19.765a3 3 0 0 1 3-3z" id="a"/><rect id="b" x="17.928" width="24.651" height="41.353" rx="2"/><rect id="c" x="31.373" y="13.412" width="26.892" height="27.941" rx="2"/><rect id="d" y="13.412" width="26.892" height="24.588" rx="2"/><rect id="e" x="49.301" y="24.588" width="7.843" height="6.706" rx="1"/><rect id="f" x="4.482" y="14.529" width="5.602" height="6.706" rx="1"/></defs><g transform="translate(11 30)" fill="none" fill-rule="evenodd"><use fill="#FFF" xlink:href="#a"/><path stroke="#000" stroke-width="2" d="M70.229 17.765a2 2 0 0 0-2 2v21.94a2 2 0 0 0 2 2h9.137l.144.83c.503 2.901 1.298 4.485 2.181 4.826.895.346 3.396.416 7.321.155a2 2 0 0 0 1.868-1.996V34.576a10 10 0 0 0-.752-3.804l-4.84-11.768a2 2 0 0 0-1.85-1.24h-13.21z"/><path d="M88.541 44.706H92a1 1 0 0 1 1 1v3.588a1 1 0 0 1-1 1h-9.084" stroke="#000" stroke-width="2" fill="#FFF" stroke-linecap="round" stroke-linejoin="round"/><ellipse stroke="#000" stroke-width="2" fill="#FFF" cx="78.434" cy="50.294" rx="6.723" ry="6.706"/><ellipse stroke="#000" fill="#FFF" cx="78.434" cy="50.294" rx="3.361" ry="3.353"/><path d="M87.271 22.353h-7.7a1 1 0 0 0-1 1v8.97a1 1 0 0 0 .884.993l11.44 1.331" stroke="#000"/><path d="M65.363 43.588H26c-2.36-2.234-5.03-3.373-8.012-3.418-2.982-.046-5.646 1.094-7.993 3.418H3.564L0 46.621m70.643 3.673h-52.36" stroke="#000" stroke-width="2" stroke-linecap="round" stroke-linejoin="round"/><path d="M68.914 46.941H27.448" stroke="#000" stroke-linecap="round" stroke-linejoin="round"/><ellipse stroke="#000" stroke-width="2" fill="#FFF" cx="17.928" cy="50.294" rx="6.723" ry="6.706"/><ellipse stroke="#000" fill="#FFF" cx="17.928" cy="50.294" rx="3.361" ry="3.353"/><g transform="translate(7.843)"><use fill="#FFF" xlink:href="#b"/><rect stroke="#000" stroke-width="2" x="18.928" y="1" width="22.651" height="39.353" rx="2"/></g><g transform="translate(7.843)"><use fill="#FFF" xlink:href="#c"/><rect stroke="#000" stroke-width="2" x="32.373" y="14.412" width="24.892" height="25.941" rx="2"/></g><g transform="translate(7.843)"><use fill="#FFF" xlink:href="#d"/><rect stroke="#000" stroke-width="2" x="1" y="14.412" width="24.892" height="22.588" rx="2"/></g><g transform="translate(7.843)"><use fill="#FFF" xlink:href="#e"/><rect stroke="#000" x="49.801" y="25.088" width="6.843" height="5.706" rx="1"/></g><g transform="translate(7.843)"><use fill="#FFF" xlink:href="#f"/><rect stroke="#000" x="4.982" y="15.029" width="4.602" height="5.706" rx="1"/></g><path d="M50.982 14.53v26.823M20.729 14.53v22.36M45.38 14.53v26.823M43.497 1.63v13.02" stroke="#000"/></g></svg>