<?xml version="1.0" encoding="UTF-8"?>
<svg width="80px" height="80px" viewBox="-40 0 512 512" xmlns="http://www.w3.org/2000/svg">
  <path d="m119.761719 255.175781c-4.144531 0-7.5 3.359375-7.5 7.5v17.375c0 4.140625 3.355469 7.5 7.5 7.5 4.140625 0 7.5-3.359375 7.5-7.5v-17.375c0-4.140625-3.359375-7.5-7.5-7.5zm0 0"/>
  <path d="m311.761719 255.175781c-4.144531 0-7.5 3.359375-7.5 7.5v17.375c0 4.140625 3.355469 7.5 7.5 7.5 4.140625 0 7.5-3.359375 7.5-7.5v-17.375c0-4.140625-3.359375-7.5-7.5-7.5zm0 0"/>
  <path d="m244.390625 273.195312c-3.117187-2.726562-7.855469-2.410156-10.582031.710938-4.402344 5.03125-10.980469 7.917969-18.046875 7.917969-7.070313 0-13.648438-2.886719-18.046875-7.917969-2.726563-3.121094-7.464844-3.4375-10.585938-.710938-3.117187 2.726563-3.4375 7.460938-.710937 10.582032 7.25 8.292968 17.941406 13.046875 29.34375 13.046875 11.398437 0 22.089843-4.753907 29.339843-13.046875 2.726563-3.117188 2.40625-7.855469-.710937-10.582032zm0 0"/>
  <path d="m390.058594 0h-281.929688c-4.144531 0-7.5 3.359375-7.5 7.5s3.355469 7.5 7.5 7.5h35.507813l12.742187 20.070312c4.546875 7.15625 12.320313 11.429688 20.796875 11.429688h77.167969c8.476562 0 16.25-4.273438 20.796875-11.429688l12.742187-20.070312h102.175782c14.589844 0 26.460937 11.871094 26.460937 26.460938v124.210937h-401.519531v-124.210937c0-14.589844 11.871094-26.460938 26.460938-26.460938h36.667968c4.140625 0 7.5-3.359375 7.5-7.5s-3.359375-7.5-7.5-7.5h-36.667968c-22.863282 0-41.460938 18.597656-41.460938 41.460938v429.078124c0 22.863282 18.597656 41.460938 41.460938 41.460938h260.15625c4.140624 0 7.5-3.359375 7.5-7.5s-3.359376-7.5-7.5-7.5h-260.15625c-14.589844 0-26.460938-11.871094-26.460938-26.460938v-124.210937h128.636719l12.742187 20.070313c4.546875 7.160156 12.320313 11.429687 20.796875 11.429687h77.167969c8.476562 0 16.25-4.269531 20.796875-11.429687l12.742187-20.070313h128.636719v124.210937c0 14.589844-11.871093 26.460938-26.460937 26.460938h-58.441406c-4.144532 0-7.5 3.359375-7.5 7.5s3.355468 7.5 7.5 7.5h58.441406c22.863281 0 41.460937-18.597656 41.460937-41.460938v-429.078124c0-22.863282-18.597656-41.460938-41.460937-41.460938zm-127.582032 27.027344c-1.777343 2.800781-4.816406 4.472656-8.132812 4.472656h-77.164062c-3.316407 0-6.359376-1.671875-8.136719-4.472656l-7.636719-12.027344h108.707031zm7.632813 153.644531-7.632813 12.023437c-1.777343 2.796876-4.820312 4.46875-8.132812 4.46875h-77.167969c-3.316406 0-6.355469-1.671874-8.132812-4.46875l-7.636719-12.023437zm-7.632813 177.6875c-1.777343 2.796875-4.816406 4.46875-8.132812 4.46875h-77.164062c-3.316407 0-6.359376-1.667969-8.136719-4.46875l-7.636719-12.03125h108.707031zm21.285157-27.03125h-268.761719v-150.65625h128.640625l12.738281 20.0625c4.546875 7.15625 12.320313 11.429687 20.796875 11.429687h77.167969c8.476562 0 16.25-4.273437 20.796875-11.429687l12.738281-20.0625h128.640625v150.65625zm0 0"/>
</svg>

