<?xml version="1.0" encoding="UTF-8"?>
<svg width="110px" height="110px" viewBox="0 0 110 110" version="1.1" xmlns="http://www.w3.org/2000/svg" xmlns:xlink="http://www.w3.org/1999/xlink">
    <!-- Generator: Sketch 48.2 (47327) - http://www.bohemiancoding.com/sketch -->
    <title>Group 15</title>
    <desc>Created with Sketch.</desc>
    <defs>
        <rect id="path-1" x="0" y="0" width="18" height="15.3223701" rx="2"></rect>
        <rect id="path-2" x="3" y="1" width="3.27272727" height="3.69850313" rx="1"></rect>
        <rect id="path-3" x="0" y="0" width="15.3373477" height="13.0558066" rx="2"></rect>
        <rect id="path-4" x="11" y="5" width="2.78860868" height="3.15140159" rx="1"></rect>
    </defs>
    <g id="Perevoz" stroke="none" stroke-width="1" fill="none" fill-rule="evenodd" transform="translate(-236.000000, -1079.000000)">
        <g id="Group-15" transform="translate(272.000000, 1091.000000)">
            <g id="Group-19" transform="translate(0.000000, 12.000000)" stroke="#000000">
                <g id="Group-23">
                    <path d="M21.1449974,21.1745458 C22.140146,21.6757101 23.9637327,21.8684791 26.6157574,21.7528528 C29.2677822,21.6372264 31.881698,21.2509855 34.457505,20.5941301 C39.2930758,18.6628491 41.9070278,17.9983899 42.2993609,18.6007526 C42.8878605,19.5042967 41.1649681,21.7443864 39.7310177,22.4748536 C38.9044917,22.8958934 37.6355236,23.1269095 35.9241133,23.1679019 L35.9241136,23.1679165 C35.3883785,23.1807487 34.8658599,23.3368499 34.4108792,23.6199918 C32.2787302,24.946863 29.6803563,25.8328963 26.6157574,26.2780919 C25.2826871,26.4717475 23.8405544,26.5447935 22.2893594,26.4972296" id="Path-8" stroke-width="2" stroke-linecap="round" stroke-linejoin="round" transform="translate(31.781388, 22.448618) rotate(3.000000) translate(-31.781388, -22.448618) "></path>
                    <path d="M5.96402138,18.2936369 C6.12394182,14.3041718 5.50956408,12.0105348 4.12088816,11.4127262 C2.03787427,10.5160131 0.0655445913,8.12117245 1.2573789,4.74920177 C2.44921321,1.37723109 6.34492578,0.508062482 9.05858768,1.24229293 C10.744659,1.6984901 11.9663705,2.98412215 13.1325684,4.74920177 C15.4284668,8.22412109 16.4345703,11.4736328 15.072998,12.1787109 C13.7114258,12.8837891 12.7506425,12.8577174 11.7050781,13.2006836 C11.2557856,13.3480606 11.4778593,14.9500257 12.3712993,18.0065789 L5.96402138,18.2936369 Z" id="Path-20" stroke-width="2" stroke-linecap="round" stroke-linejoin="round"></path>
                    <path d="M16,71.6766074 L23.3229383,71.6766074 C24.1237818,71.6766074 24.7729937,71.0273955 24.7729937,70.226552 C24.7729937,70.1904121 24.7716427,70.1542849 24.7689433,70.1182459 L24.7487055,69.8480484 C24.6899755,69.0639389 24.1772411,68.386998 23.438359,68.118055 L20.5061363,67.0507659 C19.9396239,66.8445631 19.4963526,66.3938166 19.2996517,65.8239354 L19.124939,65.3177579 C18.8379911,64.4864134 18.0314484,63.948827 17.1536992,64.0038639 L15.8748412,64.0840512 C14.8209398,64.1501332 14,65.02416 14,66.0801312 L14,69.6766074 C14,70.7811769 14.8954305,71.6766074 16,71.6766074 Z" id="Path-23-Copy" stroke-width="2" stroke-linecap="round" stroke-linejoin="round"></path>
                    <path d="M30.8098857,67.9399484 L38.132824,67.9399484 C38.9336675,67.9399484 39.5828794,67.2907365 39.5828794,66.489893 C39.5828794,66.4537531 39.5815283,66.4176258 39.578829,66.3815869 L39.5585911,66.1113894 C39.4998612,65.3272798 38.9871268,64.6503389 38.2482447,64.3813959 L35.3160219,63.3141069 C34.7495095,63.1079041 34.3062383,62.6571576 34.1095374,62.0872763 L33.9348246,61.5810989 C33.6478768,60.7497544 32.8413341,60.212168 31.9635849,60.2672049 L30.6847269,60.3473922 C29.6308255,60.4134742 28.8098857,61.287501 28.8098857,62.3434721 L28.8098857,65.9399484 C28.8098857,67.0445179 29.7053162,67.9399484 30.8098857,67.9399484 Z" id="Path-23-Copy-2" stroke-width="2" stroke-linecap="round" stroke-linejoin="round" transform="translate(34.196383, 64.101645) rotate(-15.000000) translate(-34.196383, -64.101645) "></path>
                    <path d="M21.1206382,53.7627882 L20.6199486,63.7517344 C20.5666004,64.8160506 19.6881088,65.6516113 18.6224563,65.6516113 L14.5116042,65.6516113 C13.4070347,65.6516113 12.5116042,64.7561808 12.5116042,63.6516113 C12.5116042,63.6287745 12.5119953,63.6059393 12.5127774,63.5831158 L12.8345151,54.1942094 C12.8545612,53.609226 12.7889003,53.0244574 12.6396189,52.458487 L9.69921875,41.3105469 C5.27691197,32.2928919 3.1222082,26.0520065 3.23510742,22.5878906 C3.34800665,19.1237748 5.76796921,17.3234818 10.4949951,17.1870117 C11.9127228,17.3314305 13.0226268,17.4707534 13.824707,17.6049805 C14.6267873,17.7392075 17.2584605,18.3666489 21.7197266,19.4873047 L22.5351563,26.6538652 L17.3842773,26.6538652 L22.5351563,37.5600586 L30.6671224,47.5003628 C31.1963514,48.1472786 31.5845832,48.8976296 31.806935,49.7033237 L34.4512175,59.2849113 C34.7336205,60.3082019 34.1673688,61.3738521 33.1612852,61.7124829 L29.0634596,63.0917419 C28.0165981,63.4440979 26.8823082,62.8810899 26.5299523,61.8342283 C26.4986373,61.7411904 26.4742147,61.6459731 26.4568825,61.5493487 L24.97657,53.2968091 C24.8102823,52.3697781 24.4280952,51.4949128 23.8609338,50.7430045 L19.7724609,45.3227539 L21.0351445,52.410017 C21.1146489,52.8562638 21.1433297,53.3100827 21.1206382,53.7627882 Z" id="Path-7" stroke-width="2" fill="#FFFFFF" fill-rule="nonzero" stroke-linecap="round" stroke-linejoin="round"></path>
                    <path d="M8.78613281,39.8012695 C8.78613281,39.8012695 14.9072704,39.3415527 22.046133,35.6623535" id="Path-21" stroke-linecap="round" stroke-linejoin="round"></path>
                    <path d="M3.03466797,1.91674805 C0.699819592,3.17513092 0.0258084065,6.39220816 1.42944336,9.18530273 C1.69885926,9.7214137 2.05912944,10.0272405 2.51025391,10.1027832 L12.177002,3.08361816 C9.08919271,0.685017904 6.04174805,0.296061198 3.03466797,1.91674805 Z" id="Path-22" fill="#000000"></path>
                    <path d="M11,3.35693359 L15.5,0.5" id="Path-23" stroke-linecap="round"></path>
                </g>
            </g>
            <g id="Group-21" transform="translate(31.252455, 23.441296) rotate(-10.000000) translate(-31.252455, -23.441296) translate(22.252455, 15.441296)">
                <g id="Rectangle-7-Copy-2">
                    <use fill="#FFFFFF" fill-rule="evenodd" xlink:href="#path-1"></use>
                    <rect stroke="#000000" stroke-width="2" x="1" y="1" width="16" height="13.3223701" rx="2"></rect>
                </g>
                <g id="Rectangle-7-Copy-3">
                    <use fill="#FFFFFF" fill-rule="evenodd" xlink:href="#path-2"></use>
                    <rect stroke="#000000" stroke-width="1" x="3.5" y="1.5" width="2.27272727" height="2.69850313" rx="1"></rect>
                </g>
                <path d="M8.5,0 L8.5,14.093938" id="Path-17-Copy-2" stroke="#000000"></path>
            </g>
            <g id="Group-21-Copy" transform="translate(29.093999, 8.282840) rotate(-10.000000) translate(-29.093999, -8.282840) translate(21.093999, 1.282840)">
                <g id="Rectangle-7-Copy-2">
                    <use fill="#FFFFFF" fill-rule="evenodd" xlink:href="#path-3"></use>
                    <rect stroke="#000000" stroke-width="2" x="1" y="1" width="13.3373477" height="11.0558066" rx="2"></rect>
                </g>
                <g id="Rectangle-7-Copy-3">
                    <use fill="#FFFFFF" fill-rule="evenodd" xlink:href="#path-4"></use>
                    <rect stroke="#000000" stroke-width="1" x="11.5" y="5.5" width="1.78860868" height="2.15140159" rx="0.89430434"></rect>
                </g>
                <path d="M5.42603744,0 L5.42603744,12.0090905" id="Path-17-Copy-2" stroke="#000000"></path>
            </g>
        </g>
    </g>
</svg>