<?xml version="1.0" encoding="utf-8"?>
<!-- Generator: Adobe Illustrator 22.0.1, SVG Export Plug-In . SVG Version: 6.00 Build 0)  -->
<svg version="1.1" id="Layer_1" xmlns="http://www.w3.org/2000/svg" xmlns:xlink="http://www.w3.org/1999/xlink" x="0px" y="0px"
	 viewBox="0 0 50 50" style="enable-background:new 0 0 50 50;" xml:space="preserve">
<style type="text/css">
	.st0{fill:#323232;}
</style>
<g>
	<g>
		<path class="st0" d="M25,33.9078255c5.7453995,0,10.3859138-4.7510033,10.3859138-10.5332317V10.9998875
			C35.3859138,5.180829,30.7453995,0.4666555,25,0.4666555S14.6140871,5.180829,14.6140871,10.9998875v12.3378754
			C14.6140871,29.1936493,19.2546024,33.9078255,25,33.9078255z M16.8238564,10.9998875
			c0-4.6036854,3.6829472-8.3234634,8.1761436-8.3234634s8.1761436,3.7566066,8.1761436,8.3234634v12.3378754
			c0,4.6036854-3.6829472,8.3234615-8.1761436,8.3234615s-8.1761456-3.6829491-8.1761456-8.2866325
			C16.8238544,23.3745918,16.8238544,10.9998875,16.8238564,10.9998875z"/>
		<path class="st0" d="M25,12.8045311c0.6261024,0,1.1048851-0.4787827,1.1048851-1.1048841V8.5323114
			c0-0.6261015-0.4787827-1.1048846-1.1048851-1.1048846c-0.6261005,0-1.1048832,0.4787831-1.1048832,1.1048846v3.1673355
			C23.8951168,12.3257484,24.3738995,12.8045311,25,12.8045311z"/>
	</g>
	<g>
		<g>
			<g>
				<path class="st0" d="M18.3746967,34.1739082c-0.3547745-0.3547783-0.9299812-0.3547783-1.2847576,0
					c-0.3547764,0.3547745-0.3547764,0.9299812,0,1.2847557l7.267683,7.2676811
					c0.3547764,0.3547783,0.9299793,0.3547783,1.2847576,0l7.2676811-7.2676811
					c0.3547745-0.3547745,0.3547745-0.9299812,0-1.2847557c-0.3547745-0.3547783-0.9299812-0.3547783-1.2847576,0
					l-6.6252289,6.6252289L18.3746967,34.1739082z"/>
			</g>
		</g>
		<g>
			<g>
				<path class="st0" d="M18.3746967,40.7148209c-0.3547745-0.3547745-0.9299812-0.3547745-1.2847576,0
					c-0.3547764,0.3547783-0.3547764,0.9299812,0,1.2847595l7.267683,7.2676811
					c0.3547764,0.3547783,0.9299793,0.3547783,1.2847576,0l7.2676811-7.2676811
					c0.3547745-0.3547783,0.3547745-0.9299812,0-1.2847595c-0.3547745-0.3547745-0.9299812-0.3547745-1.2847576,0
					l-6.6252289,6.6252327L18.3746967,40.7148209z"/>
			</g>
		</g>
	</g>
</g>
</svg>
